<svg width="220" height="34" viewBox="0 0 220 34" fill="none" xmlns="http://www.w3.org/2000/svg">
<path d="M58.8309 20.2808L51.3682 20.2889L50.0682 22.7766L45.3165 22.7888L52.4419 10.7267H57.7448L64.8702 22.7483L60.1186 22.7766L58.835 20.2808H58.8309ZM55.0913 13.3361L52.5612 18.109L57.6502 18.0928L55.0872 13.3361" fill="white"/>
<path d="M75.8999 14.2193C75.653 12.6392 73.6331 12.4649 71.8476 12.4649C70.0374 12.4892 68.8526 13.0889 68.8526 13.8952C68.8526 14.5273 69.5643 14.9041 70.7039 15.0378L76.2207 15.682C79.1663 16.0345 81.4167 16.8611 81.4373 19.0652C81.4167 21.3018 79.3926 23.1089 73.0118 23.117C69.0707 23.1089 63.9405 22.7239 63.8829 18.9761L68.8526 18.9639C68.8691 20.6373 71.1112 20.9209 73.0077 20.9209C75.0812 20.9169 76.4799 20.4712 76.4799 19.4015C76.4799 18.4858 75.4885 18.2346 73.7153 18.0199L69.7042 17.5904C66.8738 17.2703 64.1791 16.6382 64.1709 14.1626C64.1709 11.4804 67.1206 10.3904 72.2178 10.3904C75.5255 10.3904 80.4787 10.8037 80.7626 14.2234H75.8957" fill="white"/>
<path d="M82.515 10.7186H90.6977C95.5605 10.747 97.7902 13.0848 97.7779 16.5815C97.7779 19.9363 95.8073 22.7685 90.8623 22.7523L82.4904 22.7807L82.515 10.7227V10.7186ZM90.7265 21.2086C94.676 21.1964 95.3877 18.7613 95.3753 16.6058C95.3753 14.4786 94.4456 12.2502 90.2699 12.2785H84.9217L84.9053 21.2086H90.7224" fill="white"/>
<path d="M99.3988 10.7308H112.436L112.42 12.2826L101.83 12.2623L101.793 15.7711H112.107V17.3149L101.81 17.3068L101.793 21.2126H112.675V22.7523H99.3988V10.7308Z" fill="white"/>
<path d="M114.316 10.7389L122.684 10.7308C126.234 10.7308 128.077 11.922 128.102 14.1869C128.123 16.4397 126.243 17.9348 122.828 17.9631L116.723 17.9469L116.715 22.7523L114.341 22.7685L114.312 10.7389H114.316ZM122.511 16.383C124.877 16.383 125.7 15.4267 125.7 14.2153C125.7 13.0808 124.778 12.2785 122.947 12.2785H116.735V16.3789H122.511" fill="white"/>
<path d="M137.581 10.4107C144.101 10.4229 146.603 13.6643 146.578 16.7355C146.586 19.8391 144.097 23.0765 137.581 23.0765C131.064 23.0765 128.583 19.8391 128.583 16.7396C128.583 13.64 131.089 10.4269 137.581 10.4067M137.581 11.9828C133.89 11.9585 130.99 13.5589 130.974 16.7314C130.974 19.9364 133.89 21.5206 137.618 21.5328C141.279 21.5206 144.179 19.9242 144.179 16.7396C144.179 13.5549 141.279 11.9625 137.581 11.9828Z" fill="white"/>
<path d="M148.145 10.7308H158.15C161.425 10.7146 162.585 12.4001 162.614 13.9276C162.585 15.4105 161.643 16.4761 159.878 16.9016L159.887 16.9097C161.302 17.0758 162.137 18.0887 162.232 19.4744C162.343 21.7394 162.437 22.3147 163.001 22.7807H160.446C160.076 22.4241 160.068 21.9419 159.965 20.4874C159.804 18.3318 158.858 17.6552 156.834 17.6552H150.573L150.535 22.7807L148.162 22.7523L148.145 10.7308ZM157.274 16.1115C159.611 16.1115 160.183 15.0378 160.166 14.2112C160.183 13.0524 159.249 12.2866 157.336 12.2583L150.54 12.2866V16.1115H157.274Z" fill="white"/>
<path d="M168.547 12.2826L162.425 12.2704V10.7308H177.087L177.054 12.2623L170.937 12.2826V22.7685H168.522L168.547 12.2826Z" fill="white"/>
<path d="M177.68 10.7308L190.717 10.7105V12.2623L180.09 12.2826V15.7711H190.367V17.3189L180.09 17.3067V21.1964H190.922V22.7523L177.7 22.7685L177.68 10.7308Z" fill="white"/>
<path d="M212.887 11.0144L213.549 6.91406H206.93L205.794 13.9519H198.282L197.348 19.4704H204.276C207.251 17.0637 211.369 13.6075 212.887 11.0144Z" fill="white"/>
<path d="M214.993 13.9479C215.146 15.4632 215.158 17.2095 214.899 19.1382L214.726 19.122C212.751 14.6002 208.72 16.9421 204.881 19.5474L203.758 26.5042H210.377L211.513 19.4663H219.066L220 13.9479H214.989H214.993Z" fill="white"/>
<path d="M21.9491 3.14593C21.7229 2.7205 21.1181 1.70757 21.1181 1.70757C19.8222 -0.569514 17.6829 -0.569514 16.3788 1.70757L0.605835 29.2716C7.68187 23.0116 24.5039 8.79001 21.9491 3.14593Z" fill="white"/>
<path d="M36.9487 29.3485L24.2859 7.23413C25.5448 11.298 26.6926 17.246 26.0467 24.4824L25.6929 24.4702C20.1514 13.1902 9.1218 23.7369 0.186245 30.1629C-0.467877 32.0592 0.638782 33.5097 2.93027 33.5097H34.5667C37.1791 33.5056 38.2446 31.6297 36.9528 29.3526" fill="white"/>
</svg>
