<svg width="24" height="24" viewBox="0 0 24 24" fill="none" xmlns="http://www.w3.org/2000/svg">
<path fill-rule="evenodd" clip-rule="evenodd" d="M12 22C17.5228 22 22 17.5228 22 12C22 6.47715 17.5228 2 12 2C6.47715 2 2 6.47715 2 12C2 17.5228 6.47715 22 12 22ZM7.41668 7.41667C7.6468 7.18655 8.0199 7.18655 8.25002 7.41667L12 11.1667L15.7501 7.41667C15.9802 7.18655 16.3533 7.18655 16.5834 7.41667C16.8135 7.64679 16.8135 8.01988 16.5834 8.25L12.8334 12L16.5834 15.75C16.8135 15.9801 16.8135 16.3532 16.5834 16.5833C16.3532 16.8135 15.9801 16.8135 15.75 16.5833L12 12.8334L8.25006 16.5833C8.01994 16.8135 7.64684 16.8135 7.41672 16.5833C7.18661 16.3532 7.18661 15.9801 7.41672 15.75L11.1667 12L7.41668 8.25C7.18657 8.01988 7.18657 7.64679 7.41668 7.41667Z" fill="white"/>
</svg>
