<svg width="24" height="24" viewBox="0 0 24 24" fill="none" xmlns="http://www.w3.org/2000/svg">
<path fill-rule="evenodd" clip-rule="evenodd" d="M19.5334 18.5676C19.7517 18.5676 19.9413 18.4124 19.9915 18.1929C20.0628 17.8806 19.668 17.599 19.5484 17.5137C19.5365 17.5052 19.5273 17.4987 19.5216 17.4943C19.3716 17.378 19.1663 17.1929 18.9596 16.9258C18.5509 16.3978 18.1214 15.5305 18.1214 14.1892V9.32428C18.1214 5.83144 15.382 3 12.0028 3C8.6236 3 5.88421 5.83144 5.88421 9.32428V14.1892C5.88421 15.5305 5.45473 16.3978 5.04602 16.9258C4.83928 17.1929 4.63402 17.378 4.48399 17.4943C4.4459 17.5238 4.40555 17.5523 4.36504 17.5809C4.15585 17.7285 3.94249 17.8791 4.01415 18.1929C4.0643 18.4124 4.25394 18.5676 4.47222 18.5676H9.64942C9.64942 19.911 10.703 21 12.0027 21C13.3024 21 14.356 19.911 14.356 18.5676H19.5334ZM13.4147 18.5676H10.5907C10.5907 19.3736 11.2229 20.027 12.0027 20.027C12.7825 20.027 13.4147 19.3736 13.4147 18.5676ZM17.1801 14.1892C17.1801 15.8143 17.7241 16.9109 18.2726 17.5946H5.73303C6.28153 16.9109 6.82553 15.8143 6.82553 14.1892V9.32428C6.82553 6.36881 9.14347 3.97297 12.0028 3.97297C14.8621 3.97297 17.1801 6.36881 17.1801 9.32428V14.1892Z" fill="white"/>
</svg>
