<svg width="24" height="24" viewBox="0 0 24 24" fill="none" xmlns="http://www.w3.org/2000/svg">
<path fill-rule="evenodd" clip-rule="evenodd" d="M10 3.5C6.41015 3.5 3.5 6.41015 3.5 10C3.5 13.5899 6.41015 16.5 10 16.5C11.6149 16.5 13.0923 15.911 14.2291 14.9362L19.6464 20.3535C19.8417 20.5488 20.1583 20.5488 20.3535 20.3535C20.5488 20.1583 20.5488 19.8417 20.3535 19.6464L14.9362 14.2291C15.911 13.0923 16.5 11.6149 16.5 10C16.5 6.41015 13.5899 3.5 10 3.5ZM4.5 10C4.5 6.96243 6.96243 4.5 10 4.5C13.0376 4.5 15.5 6.96243 15.5 10C15.5 13.0376 13.0376 15.5 10 15.5C6.96243 15.5 4.5 13.0376 4.5 10Z" fill="white"/>
</svg>
