<svg width="24" height="24" viewBox="0 0 24 24" fill="none" xmlns="http://www.w3.org/2000/svg">
<path fill-rule="evenodd" clip-rule="evenodd" d="M13.5 5C13.5 4.72386 13.2761 4.5 13 4.5C12.7239 4.5 12.5 4.72386 12.5 5V7.5H10C9.72386 7.5 9.5 7.72386 9.5 8C9.5 8.27614 9.72386 8.5 10 8.5H12.5V11C12.5 11.2761 12.7239 11.5 13 11.5C13.2761 11.5 13.5 11.2761 13.5 11V8.5H16C16.2761 8.5 16.5 8.27614 16.5 8C16.5 7.72386 16.2761 7.5 16 7.5H13.5V5ZM21.3735 5.50665C21.646 5.55157 21.8305 5.80887 21.7855 6.08133L20.4396 14.244C20.3202 14.9685 19.6938 15.5 18.9596 15.5H7.04304C6.3088 15.5 5.68248 14.9685 5.56303 14.244L4.35517 6.91864C4.31535 6.67715 4.10658 6.49999 3.86183 6.49999H2C1.72386 6.49999 1.5 6.27613 1.5 5.99999C1.5 5.72384 1.72386 5.49999 2 5.49999H3.86183C4.59608 5.49999 5.2224 6.03149 5.34185 6.75595L6.5497 14.0813C6.58952 14.3228 6.79829 14.5 7.04304 14.5H18.9596C19.2044 14.5 19.4131 14.3228 19.4529 14.0813L20.7989 5.91864C20.8438 5.64618 21.1011 5.46172 21.3735 5.50665ZM6.5 19C6.5 18.1716 7.17157 17.5 8 17.5C8.82843 17.5 9.5 18.1716 9.5 19C9.5 19.8284 8.82843 20.5 8 20.5C7.17157 20.5 6.5 19.8284 6.5 19ZM8 18.5C7.72386 18.5 7.5 18.7239 7.5 19C7.5 19.2761 7.72386 19.5 8 19.5C8.27614 19.5 8.5 19.2761 8.5 19C8.5 18.7239 8.27614 18.5 8 18.5ZM18 17.5C17.1716 17.5 16.5 18.1716 16.5 19C16.5 19.8284 17.1716 20.5 18 20.5C18.8284 20.5 19.5 19.8284 19.5 19C19.5 18.1716 18.8284 17.5 18 17.5ZM17.5 19C17.5 18.7239 17.7239 18.5 18 18.5C18.2761 18.5 18.5 18.7239 18.5 19C18.5 19.2761 18.2761 19.5 18 19.5C17.7239 19.5 17.5 19.2761 17.5 19Z" fill="white"/>
</svg>
